# xmcd
#
# Track frame offsets:
#	182
#	13067
#	28270
#	42435
#	58890
#	69595
#	85305
#	101585
#	118377
#	139057
#	151295
#	164782
#	176422
#	187660
#
# Disc length: 2694 seconds
#
# Revision: 0
# Processed by: cddbd v1.5.1PL0 Copyright (c) Steve Scherf et al.
# Submitted via: audiograbber 1.80
#
DISCID=c60a840e
DTITLE=Novi Zelenaci Mirka Hoffmana - Pisne s vuni eukalyptu 1
DYEAR=1900
DGENRE=
TTITLE0=Australie
TTITLE1=Sbohem bude naveky Anglie
TTITLE2=Ricni zatoka
TTITLE3=Cesta k Hoganovy soutesce
TTITLE4=Chajda kurova
TTITLE5=Statecnej John Donahoe
TTITLE6=Bobuv hrob
TTITLE7=Dam si pres rameno pingl
TTITLE8=Nas Pardon - Milosti syn
TTITLE9=Vostrej Australak
TTITLE10=Bohatej farmar
TTITLE11=Pet mil od Gundagai
TTITLE12=Umirajici pastevec
TTITLE13=Muz ktery to risknul
EXTD=
EXTT0=
EXTT1=
EXTT2=
EXTT3=
EXTT4=
EXTT5=
EXTT6=
EXTT7=
EXTT8=
EXTT9=
EXTT10=
EXTT11=
EXTT12=
EXTT13=
PLAYORDER=
